<svg width="32" height="32" viewBox="0 0 32 32" fill="none" xmlns="http://www.w3.org/2000/svg">
<g clip-path="url(#clip0)">
<path d="M31.4666 0H7.46663C7.17209 0 6.93329 0.2388 6.93329 0.533333V8.53332H7.99996V1.06667H30.9333V30.4C30.9384 30.6804 30.722 30.9154 30.4421 30.9333C30.3962 30.9333 30.3503 30.9296 30.3045 30.9285C30.2101 30.9258 30.1157 30.9237 30.0229 30.9141C30.0149 30.9141 30.0074 30.9141 29.9994 30.9109C28.2575 30.7205 26.8816 29.3459 26.6895 27.6042C26.6895 27.5968 26.6869 27.5888 26.6858 27.5813C26.6729 27.4546 26.6665 27.3273 26.6666 27.2V26.1333C26.6666 25.8388 26.4278 25.6 26.1333 25.6H7.99996V16H6.93329V25.6H2.66663C2.3721 25.6 2.1333 25.8388 2.1333 26.1333V27.2C2.13623 29.8497 4.28356 31.997 6.93329 32H30.4533C31.3187 31.9773 32.0066 31.2657 31.9999 30.4V0.533333C31.9999 0.2388 31.7611 0 31.4666 0ZM6.93329 30.9333C4.87243 30.931 3.2023 29.2608 3.19997 27.2V26.6666H25.5999V27.2C25.6007 27.3758 25.6108 27.5516 25.6303 27.7264C25.6351 27.7728 25.6442 27.8176 25.6506 27.8634C25.6682 27.9925 25.6895 28.121 25.7178 28.2474C25.7274 28.2917 25.7397 28.3354 25.7509 28.3797C25.7834 28.5082 25.8202 28.6346 25.8629 28.7594C25.8751 28.7952 25.8879 28.8304 25.9013 28.8661C25.9498 28.9984 26.0047 29.1274 26.065 29.2549C26.0778 29.281 26.0895 29.3082 26.1023 29.3322C26.1692 29.4674 26.2426 29.5987 26.3226 29.7264C26.3333 29.7434 26.3429 29.761 26.3535 29.7797C26.4405 29.9159 26.5343 30.0476 26.6346 30.1744L26.6517 30.1973C26.7681 30.3435 26.8927 30.4829 27.025 30.6149C27.1399 30.7287 27.2589 30.8354 27.3823 30.9349L6.93329 30.9333Z" fill="#4B7597"/>
<path d="M17.6 14.9332C17.7414 14.9332 17.877 14.8769 17.977 14.7769L20.1104 12.6436C20.3186 12.4353 20.3186 12.0977 20.1104 11.8894L17.977 9.75612C17.877 9.65612 17.7414 9.59985 17.6 9.59985H2.66666C1.19393 9.59985 0 10.7938 0 12.2665C0 13.7392 1.19393 14.9332 2.66666 14.9332H17.6ZM17.4624 10.7497L18.9792 12.2665L17.4624 13.7833L17.0832 12.2665L17.4624 10.7497ZM4.26666 10.6665H16.384L16.1173 11.7332H5.33333V12.7998H16.1173L16.384 13.8665H4.26666V10.6665ZM1.06667 12.2665C1.06667 11.3829 1.783 10.6665 2.66666 10.6665H3.2V13.8665H2.66666C1.783 13.8665 1.06667 13.1502 1.06667 12.2665Z" fill="#4B7597"/>
<path d="M12.2666 22.9334H28.2666C28.5611 22.9334 28.7999 22.6946 28.7999 22.4001V6.40014C28.7999 6.10561 28.5611 5.86688 28.2665 5.86694C28.1251 5.86694 27.9895 5.92314 27.8895 6.02308L11.8896 22.023C11.6813 22.2314 11.6814 22.569 11.8897 22.7773C11.9897 22.8772 12.1252 22.9334 12.2666 22.9334ZM27.7333 7.68761V9.0668H26.6666V10.1335H27.7333V11.2001H26.6666V12.2668H27.7333V13.3335H26.6666V14.4001H27.7333V15.4668H26.6666V16.5335H27.7333V17.6001H26.6666V18.6668H27.7333V19.7334H26.6666V20.8001H27.7333V21.8668H26.6666V20.8001H25.5999V21.8668H24.5333V20.8001H23.4666V21.8668H22.3999V20.8001H21.3333V21.8668H20.2666V20.8001H19.1999V21.8668H18.1333V20.8001H17.0666V21.8668H16V20.8001H14.9333V21.8668H13.5541L27.7333 7.68761Z" fill="#4B7597"/>
<path d="M19.9912 19.733H25.0659C25.3604 19.733 25.5992 19.4942 25.5992 19.1996V14.125C25.5991 13.8305 25.3603 13.5917 25.0657 13.5918C24.9243 13.5918 24.7888 13.648 24.6888 13.7479L19.6142 18.8226C19.4059 19.0309 19.406 19.3686 19.6143 19.5768C19.7143 19.6768 19.8498 19.733 19.9912 19.733ZM24.5326 15.413V18.6663H21.2792L24.5326 15.413Z" fill="#4B7597"/>
<path d="M24.5333 3.19995H13.8667V4.26662H24.5333V3.19995Z" fill="#4B7597"/>
<path d="M26.1332 5.3335H12.2666V6.40016H26.1332V5.3335Z" fill="#4B7597"/>
<path d="M12.2664 16.5332H9.06641V17.5999H12.2664V16.5332Z" fill="#4B7597"/>
<path d="M11.1997 18.6667H9.06641V19.7334H11.1997V18.6667Z" fill="#4B7597"/>
</g>
<defs>
<clipPath id="clip0">
<rect width="32" height="32" fill="white"/>
</clipPath>
</defs>
</svg>
