<svg width="20" height="20" viewBox="0 0 20 20" fill="none" xmlns="http://www.w3.org/2000/svg">
<path d="M4.52188 15.7171L4.99627 15.875C5.06156 15.679 4.99948 15.4629 4.84006 15.3314L4.52188 15.7171ZM3.57157 18.5714L3.09717 18.4135C3.03352 18.6047 3.09085 18.8154 3.2426 18.9479C3.39435 19.0805 3.61085 19.1091 3.79176 19.0203L3.57157 18.5714ZM6.71318 17.0304L6.90141 16.5672C6.76945 16.5136 6.62088 16.5188 6.49299 16.5815L6.71318 17.0304ZM8.71442 8.71427L8.99178 8.29825L8.69192 8.09834L8.40745 8.3196L8.71442 8.71427ZM11.2859 10.4286L11.0085 10.8446L11.327 11.0569L11.6151 10.8048L11.2859 10.4286ZM10.0001 0.928558C5.10996 0.928558 0.928711 4.83288 0.928711 9.57141H1.92871C1.92871 5.43517 5.61087 1.92856 10.0001 1.92856V0.928558ZM0.928711 9.57141C0.928711 12.1838 2.32806 14.5555 4.2037 16.1028L4.84006 15.3314C3.14387 13.9321 1.92871 11.8251 1.92871 9.57141H0.928711ZM4.04748 15.5592L3.09717 18.4135L4.04597 18.7294L4.99627 15.875L4.04748 15.5592ZM3.79176 19.0203L6.93337 17.4793L6.49299 16.5815L3.35138 18.1225L3.79176 19.0203ZM6.52495 17.4936C7.58075 17.9227 8.7554 18.2143 10.0001 18.2143V17.2143C8.91187 17.2143 7.86599 16.9592 6.90141 16.5672L6.52495 17.4936ZM10.0001 18.2143C14.8903 18.2143 19.0716 14.31 19.0716 9.57141H18.0716C18.0716 13.7077 14.3894 17.2143 10.0001 17.2143V18.2143ZM19.0716 9.57141C19.0716 4.83288 14.8903 0.928558 10.0001 0.928558V1.92856C14.3894 1.92856 18.0716 5.43517 18.0716 9.57141H19.0716ZM5.16425 12.1089L9.0214 9.10895L8.40745 8.3196L4.55031 11.3196L5.16425 12.1089ZM8.43707 9.1303L11.0085 10.8446L11.5632 10.0125L8.99178 8.29825L8.43707 9.1303ZM11.6151 10.8048L15.0437 7.80485L14.3852 7.05227L10.9566 10.0523L11.6151 10.8048Z" fill="#FAFAFA"/>
</svg>
