<svg width="32" height="32" viewBox="0 0 32 32" fill="none" xmlns="http://www.w3.org/2000/svg">
<path d="M29.5 1H10.5C10.1025 1.00119 9.7217 1.1596 9.44065 1.44065C9.1596 1.7217 9.00119 2.10254 9 2.5V8H1.5C1.36739 8 1.24021 8.05268 1.14645 8.14645C1.05268 8.24021 1 8.36739 1 8.5V28.5C1 28.6326 1.05268 28.7598 1.14645 28.8536C1.24021 28.9473 1.36739 29 1.5 29H9V29.5C9.00119 29.8975 9.1596 30.2783 9.44065 30.5593C9.7217 30.8404 10.1025 30.9988 10.5 31H29.5C29.8975 30.9988 30.2783 30.8404 30.5593 30.5593C30.8404 30.2783 30.9988 29.8975 31 29.5V2.5C30.9988 2.10254 30.8404 1.7217 30.5593 1.44065C30.2783 1.1596 29.8975 1.00119 29.5 1ZM3 28H2V9H3V28ZM4 28V9H15V28H4ZM30 29.5C30 29.6326 29.9473 29.7598 29.8536 29.8536C29.7598 29.9473 29.6326 30 29.5 30H10.5C10.3674 30 10.2402 29.9473 10.1464 29.8536C10.0527 29.7598 10 29.6326 10 29.5V29H15.5C15.6326 29 15.7598 28.9473 15.8536 28.8536C15.9473 28.7598 16 28.6326 16 28.5V8.5C16 8.36739 15.9473 8.24021 15.8536 8.14645C15.7598 8.05268 15.6326 8 15.5 8H10V2.5C10 2.36739 10.0527 2.24021 10.1464 2.14645C10.2402 2.05268 10.3674 2 10.5 2H29.5C29.6326 2 29.7598 2.05268 29.8536 2.14645C29.9473 2.24021 30 2.36739 30 2.5V29.5Z" fill="#4B7597"/>
<path d="M27.5962 20.0756C27.5025 19.9819 27.3753 19.9292 27.2427 19.9292C27.1102 19.9292 26.983 19.9819 26.8892 20.0756L23.0002 23.9646L21.2322 22.1971C21.1385 22.1034 21.0113 22.0507 20.8787 22.0507C20.7462 22.0507 20.619 22.1034 20.5252 22.1971L19.1112 23.6111C19.0175 23.7049 18.9648 23.832 18.9648 23.9646C18.9648 24.0972 19.0175 24.2243 19.1112 24.3181L22.6467 27.8536C22.7405 27.9473 22.8677 28 23.0002 28C23.1328 28 23.26 27.9473 23.3537 27.8536L29.0107 22.1971C29.0572 22.1507 29.0941 22.0955 29.1193 22.0348C29.1444 21.9741 29.1574 21.909 29.1574 21.8433C29.1574 21.7776 29.1444 21.7126 29.1193 21.6519C29.0941 21.5912 29.0572 21.536 29.0107 21.4896L27.5962 20.0756ZM23.0002 26.7931L20.1717 23.9646L20.8787 23.2576L22.6467 25.0251C22.7405 25.1188 22.8677 25.1715 23.0002 25.1715C23.1328 25.1715 23.26 25.1188 23.3537 25.0251L27.2427 21.1361L27.9502 21.8436L23.0002 26.7931Z" fill="#4B7597"/>
<path d="M28 6.5V4.5C28 4.36739 27.9473 4.24021 27.8536 4.14645C27.7598 4.05268 27.6326 4 27.5 4H12.5C12.3674 4 12.2402 4.05268 12.1464 4.14645C12.0527 4.24021 12 4.36739 12 4.5V6.5C12 6.63261 12.0527 6.75979 12.1464 6.85355C12.2402 6.94732 12.3674 7 12.5 7H27.5C27.6326 7 27.7598 6.94732 27.8536 6.85355C27.9473 6.75979 28 6.63261 28 6.5ZM27 6H13V5H27V6Z" fill="#4B7597"/>
<path d="M19 9H21V10H19V9Z" fill="#4B7597"/>
<path d="M22 9H28V10H22V9Z" fill="#4B7597"/>
<path d="M19 12H21V13H19V12Z" fill="#4B7597"/>
<path d="M22 12H28V13H22V12Z" fill="#4B7597"/>
<path d="M19 15H21V16H19V15Z" fill="#4B7597"/>
<path d="M22 15H28V16H22V15Z" fill="#4B7597"/>
<path d="M19 18H21V19H19V18Z" fill="#4B7597"/>
<path d="M22 18H28V19H22V18Z" fill="#4B7597"/>
<path d="M9.5 16C9.00555 16 8.5222 16.1466 8.11107 16.4213C7.69995 16.696 7.37952 17.0865 7.1903 17.5433C7.00108 18.0001 6.95157 18.5028 7.04804 18.9877C7.1445 19.4727 7.3826 19.9181 7.73223 20.2678C8.08186 20.6174 8.52732 20.8555 9.01227 20.952C9.49722 21.0484 9.99989 20.9989 10.4567 20.8097C10.9135 20.6205 11.304 20.3001 11.5787 19.8889C11.8534 19.4778 12 18.9945 12 18.5C11.9992 17.8372 11.7356 17.2018 11.2669 16.7331C10.7982 16.2644 10.1628 16.0008 9.5 16ZM9.5 20C9.20333 20 8.91332 19.912 8.66664 19.7472C8.41997 19.5824 8.22771 19.3481 8.11418 19.074C8.00065 18.7999 7.97094 18.4983 8.02882 18.2074C8.0867 17.9164 8.22956 17.6491 8.43934 17.4393C8.64912 17.2296 8.91639 17.0867 9.20736 17.0288C9.49833 16.9709 9.79993 17.0007 10.074 17.1142C10.3481 17.2277 10.5824 17.42 10.7472 17.6666C10.912 17.9133 11 18.2033 11 18.5C11 18.8978 10.842 19.2794 10.5607 19.5607C10.2794 19.842 9.89782 20 9.5 20Z" fill="#4B7597"/>
<path d="M13.5 12C13.1025 11.9988 12.7217 11.8404 12.4407 11.5593C12.1596 11.2783 12.0012 10.8975 12 10.5C12 10.3674 11.9473 10.2402 11.8536 10.1464C11.7598 10.0527 11.6326 10 11.5 10H7.5C7.36739 10 7.24021 10.0527 7.14645 10.1464C7.05268 10.2402 7 10.3674 7 10.5C6.99881 10.8975 6.8404 11.2783 6.55935 11.5593C6.2783 11.8404 5.89746 11.9988 5.5 12C5.36739 12 5.24021 12.0527 5.14645 12.1464C5.05268 12.2402 5 12.3674 5 12.5V24.5C5 24.6326 5.05268 24.7598 5.14645 24.8536C5.24021 24.9473 5.36739 25 5.5 25C5.89746 25.0012 6.2783 25.1596 6.55935 25.4407C6.8404 25.7217 6.99881 26.1025 7 26.5C7 26.6326 7.05268 26.7598 7.14645 26.8536C7.24021 26.9473 7.36739 27 7.5 27H11.5C11.6326 27 11.7598 26.9473 11.8536 26.8536C11.9473 26.7598 12 26.6326 12 26.5C12.0012 26.1025 12.1596 25.7217 12.4407 25.4407C12.7217 25.1596 13.1025 25.0012 13.5 25C13.6326 25 13.7598 24.9473 13.8536 24.8536C13.9473 24.7598 14 24.6326 14 24.5V12.5C14 12.3674 13.9473 12.2402 13.8536 12.1464C13.7598 12.0527 13.6326 12 13.5 12ZM13 24.05C12.5198 24.1486 12.0791 24.3859 11.7325 24.7325C11.3859 25.0791 11.1486 25.5198 11.05 26H7.95C7.85141 25.5198 7.61411 25.0791 7.26749 24.7325C6.92087 24.3859 6.48017 24.1486 6 24.05V12.95C6.48017 12.8514 6.92087 12.6141 7.26749 12.2675C7.61411 11.9209 7.85141 11.4802 7.95 11H11.05C11.1486 11.4802 11.3859 11.9209 11.7325 12.2675C12.0791 12.6141 12.5198 12.8514 13 12.95V24.05Z" fill="#4B7597"/>
</svg>
