<svg width="20" height="20" viewBox="0 0 20 20" fill="none" xmlns="http://www.w3.org/2000/svg">
<path d="M3.14275 15.1434L3.58996 15.367L3.72828 15.0903L3.54251 14.843L3.14275 15.1434ZM4.85679 16.8574L5.15711 16.4576L4.90982 16.2719L4.63318 16.4102L4.85679 16.8574ZM1.42871 18.5714L0.981497 18.3478C0.88525 18.5403 0.922977 18.7728 1.07516 18.925C1.22734 19.0772 1.45982 19.1149 1.65232 19.0186L1.42871 18.5714ZM6.57157 6.57144L6.27157 6.17144C6.14566 6.26587 6.07157 6.41406 6.07157 6.57144H6.57157ZM13.4287 13.4286V13.9286C13.5762 13.9286 13.7162 13.8635 13.8112 13.7507L13.4287 13.4286ZM7.10424 6.17193L6.80424 5.77193L7.10424 6.17193ZM8.46905 6.75133L7.97291 6.81335L8.46905 6.75133ZM8.66243 8.29832L9.15857 8.2363L8.66243 8.29832ZM8.41799 9.01073L8.06444 8.65717V8.65717L8.41799 9.01073ZM13.8087 12.9774L13.4262 12.6553L13.8087 12.9774ZM13.2772 11.5771L13.3496 11.0824L13.2772 11.5771ZM11.7117 11.348L11.7841 10.8533L11.7117 11.348ZM10.9815 11.5901L11.3351 11.9436L10.9815 11.5901ZM0.928721 10C0.928721 12.0418 1.60391 13.9274 2.74299 15.4437L3.54251 14.843C2.52907 13.494 1.92872 11.8178 1.92872 10H0.928721ZM10.0001 0.928574C4.99014 0.928574 0.928721 4.98999 0.928721 10H1.92872C1.92872 5.54228 5.54242 1.92857 10.0001 1.92857V0.928574ZM19.0716 10C19.0716 4.98999 15.0102 0.928574 10.0001 0.928574V1.92857C14.4579 1.92857 18.0716 5.54228 18.0716 10H19.0716ZM10.0001 19.0714C15.0102 19.0714 19.0716 15.01 19.0716 10H18.0716C18.0716 14.4577 14.4579 18.0714 10.0001 18.0714V19.0714ZM4.55647 17.2572C6.07274 18.3962 7.95831 19.0714 10.0001 19.0714V18.0714C8.18231 18.0714 6.50614 17.4711 5.15711 16.4576L4.55647 17.2572ZM1.65232 19.0186L5.0804 17.3046L4.63318 16.4102L1.2051 18.1242L1.65232 19.0186ZM2.69554 14.9197L0.981497 18.3478L1.87592 18.795L3.58996 15.367L2.69554 14.9197ZM6.07157 6.57144V7.42858H7.07157V6.57144H6.07157ZM12.5716 13.9286H13.4287V12.9286H12.5716V13.9286ZM6.07157 7.42858C6.07157 11.0184 8.98172 13.9286 12.5716 13.9286V12.9286C9.534 12.9286 7.07157 10.4661 7.07157 7.42858H6.07157ZM6.87157 6.97144L7.40424 6.57193L6.80424 5.77193L6.27157 6.17144L6.87157 6.97144ZM7.97291 6.81335L8.16629 8.36034L9.15857 8.2363L8.96519 6.68931L7.97291 6.81335ZM8.06444 8.65717L7.07516 9.64646L7.78226 10.3536L8.77155 9.36428L8.06444 8.65717ZM8.16629 8.36034C8.17996 8.4697 8.14237 8.57924 8.06444 8.65717L8.77155 9.36428C9.06769 9.06814 9.21051 8.65187 9.15857 8.2363L8.16629 8.36034ZM7.40424 6.57193C7.62362 6.4074 7.9389 6.54124 7.97291 6.81335L8.96519 6.68931C8.83594 5.65532 7.63788 5.14671 6.80424 5.77193L7.40424 6.57193ZM13.8112 13.7507L14.1911 13.2994L13.4262 12.6553L13.0463 13.1065L13.8112 13.7507ZM13.3496 11.0824L11.7841 10.8533L11.6393 11.8428L13.2048 12.0719L13.3496 11.0824ZM10.628 11.2365L9.64659 12.2179L10.3537 12.925L11.3351 11.9436L10.628 11.2365ZM11.7841 10.8533C11.3598 10.7912 10.9312 10.9333 10.628 11.2365L11.3351 11.9436C11.4149 11.8638 11.5277 11.8264 11.6393 11.8428L11.7841 10.8533ZM14.1911 13.2994C14.8762 12.4859 14.4019 11.2364 13.3496 11.0824L13.2048 12.0719C13.4817 12.1124 13.6065 12.4412 13.4262 12.6553L14.1911 13.2994Z" fill="#FAFAFA"/>
</svg>
