<svg width="32" height="32" viewBox="0 0 32 32" fill="none" xmlns="http://www.w3.org/2000/svg">
<path d="M25.3331 20.2667V30.9334H23.7331V23.4667C23.7331 23.1722 23.4943 22.9334 23.1998 22.9334H19.9998C19.7052 22.9334 19.4664 23.1722 19.4664 23.4667V30.9334H17.8664V27.2001C17.8664 26.9055 17.6276 26.6667 17.3331 26.6667H14.1331C13.8386 26.6667 13.5998 26.9055 13.5998 27.2001V30.9334H10.9331V32.0001H31.1998V30.9334H29.5998V20.2667C29.5998 19.9722 29.361 19.7334 29.0664 19.7334H25.8664C25.5719 19.7334 25.3331 19.9722 25.3331 20.2667ZM14.6664 30.9334V27.7334H16.7998V30.9334H14.6664ZM20.5331 30.9334V24.0001H22.6664V30.9334H20.5331ZM26.3998 20.8001H28.5331V30.9334H26.3998V20.8001Z" fill="#4B7597"/>
<path d="M2.93314 29.8667H12.5331V28.8H2.93314C2.34408 28.8 1.86647 28.3224 1.86647 27.7333V26.1333C1.86647 25.8388 2.10527 25.6 2.3998 25.6H18.3998V24.5333H4.53314V1.6C4.53314 1.30547 4.77194 1.06667 5.06647 1.06667H25.3331C25.6277 1.06667 25.8665 1.30547 25.8665 1.6V18.6667H26.9331V1.6C26.9331 0.716406 26.2167 0 25.3331 0H5.06647C4.18288 0 3.46647 0.716406 3.46647 1.6V24.5333H2.3998C1.51621 24.5333 0.799805 25.2497 0.799805 26.1333V27.7333C0.799805 28.9115 1.75501 29.8667 2.93314 29.8667Z" fill="#4B7597"/>
<path d="M19.4668 10.1333H14.1334C13.8389 10.1333 13.6001 10.3721 13.6001 10.6666V16C13.6001 16.2945 13.8389 16.5333 14.1334 16.5333C15.505 16.5341 16.8329 16.0523 17.885 15.1724L19.0897 16.3771C19.1897 16.4771 19.3254 16.5333 19.4668 16.5333H21.6001V15.4666H19.6876L18.6392 14.4182C19.5191 13.3661 20.0009 12.0382 20.0001 10.6666C20.0001 10.3721 19.7613 10.1333 19.4668 10.1333ZM17.8795 13.6586L16.6438 12.4229L15.8897 13.1771L17.1254 14.4127C16.4196 14.9804 15.5668 15.3356 14.6668 15.4372V11.2H18.9035C18.8024 12.1 18.4472 12.9528 17.8795 13.6586Z" fill="#4B7597"/>
<path d="M12.0002 2.66675C9.40389 2.66545 7.11561 4.37196 6.37681 6.86102C5.63774 9.34982 6.62368 12.0285 8.80024 13.4444V15.4668H9.86691V13.9925C10.5461 14.261 11.2698 14.399 12.0002 14.4001C12.2948 14.4001 12.5336 14.1613 12.5336 13.8667V9.06675H17.3336C17.6281 9.06675 17.8669 8.82795 17.8669 8.53342C17.8659 7.80295 17.7278 7.07925 17.4594 6.40008H21.6002V5.33342H16.9112C15.8299 3.67196 13.9825 2.66883 12.0002 2.66675ZM9.86691 12.8295V9.60008H8.80024V12.1069C6.90024 10.4134 6.65988 7.52795 8.25363 5.54357L11.4669 8.75425V13.304C10.9099 13.2412 10.3682 13.0806 9.86691 12.8295ZM16.7703 8.00008H12.2211L9.0078 4.7868C10.9927 3.19123 13.8797 3.43159 15.5737 5.33342H13.0669V6.40008H16.2958C16.5471 6.90112 16.7078 7.44305 16.7703 8.00008Z" fill="#4B7597"/>
<path d="M22.6665 15.4666H23.7332V16.5332H22.6665V15.4666Z" fill="#4B7597"/>
<path d="M22.6665 5.33325H23.7332V6.39992H22.6665V5.33325Z" fill="#4B7597"/>
<path d="M7.2002 18.6667H8.26686V19.7334H7.2002V18.6667Z" fill="#4B7597"/>
<path d="M9.3335 18.6667H24.2668V19.7334H9.3335V18.6667Z" fill="#4B7597"/>
<path d="M6.1333 20.8H22.6666V21.8667H6.1333V20.8Z" fill="#4B7597"/>
<path d="M8.7998 16.5334H9.86647V17.6001H8.7998V16.5334Z" fill="#4B7597"/>
</svg>
