<svg width="186" height="29" viewBox="0 0 186 29" fill="none" xmlns="http://www.w3.org/2000/svg">
<line x1="43" y1="13.8579" x2="186" y2="13.8579" stroke="#D1B296"/>
<rect x="14.1421" y="1.06502" width="19" height="19" transform="rotate(45 14.1421 1.06502)" stroke="#D1B296"/>
<path d="M12.3687 12.9673H13.2515C13.8192 12.9673 14.2567 12.7928 14.564 12.4438C14.8713 12.0949 15.0249 11.6183 15.0249 11.0142C15.0249 9.68083 14.5093 9.01416 13.478 9.01416C12.9832 9.01416 12.5952 9.19385 12.314 9.55322C12.0327 9.9126 11.8921 10.384 11.8921 10.9673H10.5171C10.5171 10.0558 10.7931 9.30583 11.3452 8.71729C11.9025 8.12354 12.6134 7.82666 13.478 7.82666C14.3739 7.82666 15.0848 8.10791 15.6108 8.67041C16.1369 9.2277 16.3999 10.0194 16.3999 11.0454C16.3999 11.5715 16.2619 12.0636 15.9858 12.522C15.715 12.9751 15.3608 13.3084 14.9233 13.522C15.9963 13.9178 16.5327 14.8058 16.5327 16.186C16.5327 17.2017 16.2489 18.0116 15.6812 18.6157C15.1187 19.2147 14.3817 19.5142 13.4702 19.5142C12.5692 19.5142 11.84 19.2303 11.2827 18.6626C10.7306 18.0897 10.4546 17.3215 10.4546 16.3579H11.8374C11.8374 16.9621 11.9832 17.4438 12.2749 17.8032C12.5666 18.1574 12.965 18.3345 13.4702 18.3345C13.9858 18.3345 14.3947 18.16 14.6968 17.811C15.0041 17.4621 15.1577 16.9308 15.1577 16.2173C15.1577 14.8371 14.5041 14.147 13.1968 14.147H12.3687V12.9673Z" fill="#D1B296"/>
</svg>
