<svg width="22" height="22" viewBox="0 0 22 22" fill="none" xmlns="http://www.w3.org/2000/svg">
<path d="M20.117 10.376L11.4977 19.2938C10.4418 20.3862 9.00961 21 7.5163 21C6.02298 21 4.59083 20.3862 3.53489 19.2938C2.47896 18.2013 1.88574 16.7195 1.88574 15.1745C1.88574 13.6295 2.47896 12.1477 3.53489 11.0553L12.1542 2.1375C12.8582 1.40917 13.813 1 14.8085 1C15.804 1 16.7588 1.40917 17.4628 2.1375C18.1667 2.86583 18.5622 3.85365 18.5622 4.88366C18.5622 5.91367 18.1667 6.9015 17.4628 7.62983L8.83405 16.5476C8.48207 16.9118 8.00469 17.1163 7.50692 17.1163C7.00914 17.1163 6.53176 16.9118 6.17978 16.5476C5.8278 16.1834 5.63007 15.6895 5.63007 15.1745C5.63007 14.6595 5.8278 14.1656 6.17978 13.8014L14.1426 5.57263" stroke="#D1B296" stroke-width="2" stroke-linecap="round" stroke-linejoin="round"/>
</svg>
