<svg width="20" height="20" viewBox="0 0 20 20" fill="none" xmlns="http://www.w3.org/2000/svg">
<path d="M17.7502 11.0293L17.2547 10.9626C17.2384 11.0838 17.267 11.2067 17.3352 11.3082L17.7502 11.0293ZM8.97081 2.24918L8.69189 2.66415C8.79276 2.73195 8.91487 2.76069 9.03539 2.74499L8.97081 2.24918ZM2.24934 8.97067L2.74501 9.03632C2.76102 8.91547 2.73232 8.79293 2.66431 8.69175L2.24934 8.97067ZM11.0287 17.7508L11.3075 17.3357C11.2063 17.2678 11.0838 17.2391 10.9631 17.2551L11.0287 17.7508ZM18.2457 11.096C18.2932 10.7439 18.3262 10.3784 18.3262 9.99999H17.3262C17.3262 10.3207 17.2982 10.6395 17.2547 10.9626L18.2457 11.096ZM18.3262 9.99999C18.3262 5.40158 14.5977 1.6739 10.0001 1.6739V2.6739C14.0455 2.6739 17.3262 5.95392 17.3262 9.99999H18.3262ZM10.0001 1.6739C9.62127 1.6739 9.25597 1.70782 8.90624 1.75337L9.03539 2.74499C9.36094 2.70259 9.67988 2.6739 10.0001 2.6739V1.6739ZM9.24974 1.83421C8.39921 1.26253 7.37391 0.928558 6.27343 0.928558V1.92856C7.16897 1.92856 8.00105 2.1998 8.69189 2.66415L9.24974 1.83421ZM6.27343 0.928558C3.32151 0.928558 0.928711 3.32136 0.928711 6.27328H1.92871C1.92871 3.87364 3.8738 1.92856 6.27343 1.92856V0.928558ZM0.928711 6.27328C0.928711 7.37455 1.26272 8.39911 1.83437 9.24959L2.66431 8.69175C2.19994 8.00087 1.92871 7.16952 1.92871 6.27328H0.928711ZM1.75367 8.90502C1.70713 9.25638 1.67405 9.62162 1.67405 9.99999H2.67405C2.67405 9.67922 2.70211 9.36024 2.74501 9.03632L1.75367 8.90502ZM1.67405 9.99999C1.67405 14.5984 5.40176 18.3261 10.0001 18.3261V17.3261C5.95405 17.3261 2.67405 14.0461 2.67405 9.99999H1.67405ZM10.0001 18.3261C10.3778 18.3261 10.743 18.293 11.0944 18.2465L10.9631 17.2551C10.6391 17.298 10.3201 17.3261 10.0001 17.3261V18.3261ZM10.75 18.1659C11.6011 18.7374 12.6255 19.0714 13.7268 19.0714V18.0714C12.8306 18.0714 11.9992 17.8002 11.3075 17.3357L10.75 18.1659ZM13.7268 19.0714C16.678 19.0714 19.0716 16.6787 19.0716 13.7267H18.0716C18.0716 16.1263 16.1258 18.0714 13.7268 18.0714V19.0714ZM19.0716 13.7267C19.0716 12.6252 18.7367 11.6007 18.1652 10.7504L17.3352 11.3082C17.7998 11.9993 18.0716 12.8307 18.0716 13.7267H19.0716ZM9.143 10.5H10.8573V9.49999H9.143V10.5ZM12.9251 7.075C12.2825 6.43242 11.411 6.07141 10.5022 6.07141V7.07141C11.1458 7.07141 11.763 7.32706 12.218 7.78211L12.9251 7.075ZM12.0716 11.7143C12.0716 12.3849 11.5279 12.9286 10.8573 12.9286V13.9286C12.0802 13.9286 13.0716 12.9372 13.0716 11.7143H12.0716ZM10.8573 10.5C11.5279 10.5 12.0716 11.0436 12.0716 11.7143H13.0716C13.0716 10.4914 12.0802 9.49999 10.8573 9.49999V10.5ZM9.49804 12.9286C8.8545 12.9286 8.23732 12.6729 7.78226 12.2179L7.07516 12.925C7.71774 13.5676 8.58928 13.9286 9.49804 13.9286V12.9286ZM6.92871 8.2857C6.92871 9.50862 7.92008 10.5 9.143 10.5V9.49999C8.47237 9.49999 7.92871 8.95633 7.92871 8.2857H6.92871ZM7.92871 8.2857C7.92871 7.61507 8.47236 7.07141 9.143 7.07141V6.07141C7.92008 6.07141 6.92871 7.06279 6.92871 8.2857H7.92871ZM10.8573 12.9286H9.49804V13.9286H10.8573V12.9286ZM10.5022 6.07141H9.143V7.07141H10.5022V6.07141Z" fill="#FAFAFA"/>
</svg>
