<svg width="27" height="16" viewBox="0 0 27 16" fill="none" xmlns="http://www.w3.org/2000/svg">
<path d="M26.3536 8.35356C26.5488 8.15829 26.5488 7.84171 26.3536 7.64645L23.1716 4.46447C22.9763 4.26921 22.6597 4.26921 22.4645 4.46447C22.2692 4.65973 22.2692 4.97631 22.4645 5.17157L25.2929 8L22.4645 10.8284C22.2692 11.0237 22.2692 11.3403 22.4645 11.5355C22.6597 11.7308 22.9763 11.7308 23.1716 11.5355L26.3536 8.35356ZM-4.37114e-08 8.5L0.928571 8.5L0.928571 7.5L4.37114e-08 7.5L-4.37114e-08 8.5ZM2.78571 8.5L4.64286 8.5L4.64286 7.5L2.78571 7.5L2.78571 8.5ZM6.5 8.5L8.35714 8.5L8.35714 7.5L6.5 7.5L6.5 8.5ZM10.2143 8.5L12.0714 8.5L12.0714 7.5L10.2143 7.5L10.2143 8.5ZM13.9286 8.5L15.7857 8.5L15.7857 7.5L13.9286 7.5L13.9286 8.5ZM17.6429 8.5L19.5 8.5L19.5 7.5L17.6429 7.5L17.6429 8.5ZM21.3571 8.5L23.2143 8.5L23.2143 7.5L21.3571 7.5L21.3571 8.5ZM25.0714 8.5L26 8.5L26 7.5L25.0714 7.5L25.0714 8.5ZM26.7071 8.70711C27.0976 8.31658 27.0976 7.68342 26.7071 7.2929L20.3431 0.928934C19.9526 0.53841 19.3195 0.538409 18.9289 0.928934C18.5384 1.31946 18.5384 1.95262 18.9289 2.34315L24.5858 8L18.9289 13.6569C18.5384 14.0474 18.5384 14.6805 18.9289 15.0711C19.3195 15.4616 19.9526 15.4616 20.3431 15.0711L26.7071 8.70711ZM-8.74228e-08 9L0.928571 9L0.928571 7L8.74228e-08 7L-8.74228e-08 9ZM2.78571 9L4.64286 9L4.64286 7L2.78571 7L2.78571 9ZM6.5 9L8.35714 9L8.35714 7L6.5 7L6.5 9ZM10.2143 9L12.0714 9L12.0714 7L10.2143 7L10.2143 9ZM13.9286 9L15.7857 9L15.7857 7L13.9286 7L13.9286 9ZM17.6429 9L19.5 9L19.5 7L17.6429 7L17.6429 9ZM21.3571 9L23.2143 9L23.2143 7L21.3571 7L21.3571 9ZM25.0714 9L26 9L26 7L25.0714 7L25.0714 9Z" fill="#4B7597"/>
</svg>
