<svg width="32" height="32" viewBox="0 0 32 32" fill="none" xmlns="http://www.w3.org/2000/svg">
<g clip-path="url(#clip0)">
<path d="M31.1287 21.242L29.4561 20.8237C29.3162 20.362 29.1305 19.915 28.9019 19.4902L29.7895 18.0111C29.9155 17.8012 29.8825 17.5324 29.7095 17.3592L28.0447 15.6923C27.8715 15.5191 27.6027 15.4863 27.3928 15.6124L25.9137 16.5C25.7218 16.3971 25.5243 16.302 25.3233 16.2156C25.0795 16.1122 24.8302 16.0221 24.5766 15.9458L24.1583 14.2729C24.0991 14.0353 23.8858 13.8687 23.641 13.8687H21.2881C21.0433 13.8687 20.83 14.0353 20.7706 14.2729L20.3526 15.9458C19.8905 16.0856 19.4438 16.2713 19.019 16.5L17.5399 15.6124C17.33 15.4863 17.0612 15.5191 16.888 15.6923L15.2211 17.3571C15.0479 17.5303 15.0151 17.7991 15.1412 18.009L16.0288 19.4882C15.7999 19.9129 15.6144 20.3596 15.4746 20.8217L13.8017 21.2397C13.5641 21.2991 13.3975 21.5124 13.3975 21.7572V24.1117C13.3975 24.3565 13.5641 24.5698 13.8017 24.6289L15.4746 25.0472C15.6144 25.509 15.7999 25.9557 16.0288 26.3807L15.1412 27.8598C15.0151 28.0698 15.0479 28.3386 15.2211 28.5118L16.8859 30.1766C17.0591 30.3495 17.3279 30.3826 17.5376 30.2565L19.0167 29.3689C19.4418 29.5976 19.8884 29.7833 20.3502 29.9231L20.7685 31.5958C20.8279 31.8333 21.0412 32 21.286 32.0002H23.6405C23.8853 32 24.0986 31.8333 24.1577 31.5958L24.576 29.9231C25.0378 29.7833 25.4845 29.5976 25.9095 29.3689L27.3886 30.2565C27.5986 30.3826 27.8674 30.3495 28.0406 30.1766L29.7051 28.5118C29.8783 28.3386 29.9114 28.0698 29.7853 27.8598L28.8977 26.3807C29.1264 25.9557 29.3121 25.509 29.4519 25.0472L31.1246 24.6289C31.3621 24.5698 31.5288 24.3565 31.5288 24.1117V21.7593C31.5293 21.5158 31.3647 21.3027 31.1287 21.242ZM30.4664 23.697L28.8967 24.0898C28.7058 24.1372 28.5568 24.2854 28.5083 24.4761C28.3614 25.054 28.132 25.6077 27.8265 26.1198C27.7259 26.2885 27.7259 26.4987 27.8265 26.6672L28.6597 28.0541L27.5861 29.1321L26.1992 28.299C26.0307 28.1982 25.8205 28.1982 25.652 28.299C25.1397 28.6042 24.5859 28.8339 24.008 28.9806C23.8173 29.029 23.6691 29.1782 23.6217 29.3689L23.2259 30.9376H21.7046L21.3121 29.3679C21.2647 29.1772 21.1162 29.028 20.9258 28.9795C20.3479 28.8326 19.7941 28.6032 19.2818 28.2977C19.1133 28.1971 18.9031 28.1971 18.7346 28.2977L17.3477 29.1308L16.2697 28.0573L17.1029 26.6704C17.2037 26.5018 17.2037 26.2917 17.1029 26.1232C16.7977 25.6108 16.5679 25.0571 16.4213 24.4792C16.3729 24.2888 16.2236 24.1403 16.033 24.0929L14.4643 23.697V22.176L16.034 21.7832C16.2247 21.7358 16.3739 21.5877 16.4223 21.397C16.569 20.8191 16.7987 20.2653 17.1039 19.7533C17.2047 19.5845 17.2047 19.3743 17.1039 19.2058L16.2708 17.8189L17.3446 16.7409L18.7315 17.5741C18.9 17.6749 19.1102 17.6749 19.2787 17.5741C19.791 17.2688 20.3447 17.0391 20.9227 16.8925C21.1131 16.844 21.2615 16.6948 21.3089 16.5042L21.7046 14.9355H23.2259L23.6186 16.5052C23.666 16.6959 23.8142 16.8451 24.0046 16.8935C24.5825 17.0399 25.1363 17.2694 25.6481 17.5749C25.8168 17.6757 26.0273 17.6757 26.196 17.5749L27.5827 16.7417L28.6607 17.8158L27.8275 19.2027C27.727 19.3712 27.727 19.5814 27.8275 19.7499C28.133 20.2622 28.3625 20.8159 28.5094 21.3939C28.5578 21.5843 28.7068 21.7327 28.8977 21.7801L30.4664 22.176V23.697Z" fill="#4B7597"/>
<path d="M22.4655 18.6692C20.1087 18.6692 18.1982 20.5796 18.1982 22.9364C18.1982 25.2933 20.1087 27.2037 22.4655 27.2037C24.822 27.2037 26.7327 25.2933 26.7327 22.9364C26.7301 20.5809 24.821 18.6718 22.4655 18.6692ZM22.4655 26.1369C20.6978 26.1369 19.2651 24.7038 19.2651 22.9364C19.2651 21.169 20.6978 19.736 22.4655 19.736C24.2329 19.736 25.6659 21.169 25.6659 22.9364C25.6641 24.7033 24.2321 26.135 22.4655 26.1369Z" fill="#4B7597"/>
<path d="M25.1323 6.40088H26.1991V14.9354H25.1323V6.40088Z" fill="#4B7597"/>
<path d="M2.72932 27.2036V29.3372C2.72932 29.6318 2.96815 29.8706 3.26273 29.8706H14.4642V28.8038H3.79613V27.2036H10.197C10.2795 27.2044 10.3611 27.1862 10.4353 27.1502L12.5689 26.0834C12.7499 25.9933 12.8645 25.8084 12.8645 25.606C12.8645 25.4039 12.7499 25.219 12.5689 25.1286L10.4353 24.0618C10.3616 24.024 10.2798 24.004 10.197 24.0032H3.79613V5.86745H24.0655C25.2438 5.86745 26.1991 4.91211 26.1991 3.73383V2.66702C26.1991 2.37245 25.9603 2.13362 25.6657 2.13362H24.0655V3.20043H25.1323V3.73383C25.1323 4.32297 24.6546 4.80064 24.0655 4.80064C23.4764 4.80064 22.9987 4.32297 22.9987 3.73383V2.13362C22.9987 1.54448 23.4764 1.06681 24.0655 1.06681H26.1991C26.7883 1.06681 27.2659 1.54448 27.2659 2.13362V14.4019H28.3327V2.13362C28.3327 0.955336 27.3774 0 26.1991 0H2.72932C1.55078 0 0.595703 0.955336 0.595703 2.13362V3.73383C0.595703 4.91211 1.55078 5.86745 2.72932 5.86745V24.0032H2.19592C1.3122 24.0032 0.595703 24.7197 0.595703 25.6034C0.595703 26.4871 1.3122 27.2036 2.19592 27.2036H2.72932ZM1.66251 3.73383V2.13362C1.66251 1.54448 2.14018 1.06681 2.72932 1.06681H22.2283C22.0363 1.38977 21.934 1.75805 21.9319 2.13362V3.73383C21.934 4.1094 22.0363 4.47768 22.2283 4.80064H2.72932C2.14018 4.80064 1.66251 4.32297 1.66251 3.73383ZM11.1377 25.6034L10.0709 26.1368H9.66358V25.07H10.0709L11.1377 25.6034ZM1.66251 25.6034C1.66251 25.3088 1.90135 25.07 2.19592 25.07H8.59677V26.1368H2.19592C1.90135 26.1368 1.66251 25.898 1.66251 25.6034Z" fill="#4B7597"/>
<path d="M0.595703 8.00122H1.66251V18.6693H0.595703V8.00122Z" fill="#4B7597"/>
<path d="M21.3993 8.53466V7.46785H14.4651C14.3237 7.46785 14.188 7.52411 14.0879 7.62412L13.1133 8.59873C10.7833 6.89095 7.55557 7.14021 5.51545 9.18553C5.30735 9.39363 5.30735 9.73143 5.51545 9.93953L9.28731 13.7114C9.38706 13.8117 9.52276 13.8684 9.66444 13.8687H14.9985C15.2931 13.8687 15.5319 13.6299 15.5319 13.3353C15.5314 11.8338 14.9532 10.3901 13.9166 9.30377L14.6859 8.53466H21.3993ZM14.4351 12.8019H9.8853L6.66769 9.58428C8.30749 8.27134 10.612 8.18175 12.3489 9.36315L10.8875 10.8245L11.6418 11.5788L13.1652 10.0554C13.8746 10.8094 14.3203 11.7731 14.4351 12.8019Z" fill="#4B7597"/>
<path d="M22.4648 7.46777H23.5316V8.53459H22.4648V7.46777Z" fill="#4B7597"/>
<path d="M6.46338 15.4688H7.53019V16.5355H6.46338V15.4688Z" fill="#4B7597"/>
<path d="M8.59766 15.4688H13.9317V16.5355H8.59766V15.4688Z" fill="#4B7597"/>
<path d="M5.39697 17.6023H13.9314V18.6691H5.39697V17.6023Z" fill="#4B7597"/>
<path d="M17.1313 9.60107H18.1982V10.6679H17.1313V9.60107Z" fill="#4B7597"/>
<path d="M19.2656 9.60107H23.5329V10.6679H19.2656V9.60107Z" fill="#4B7597"/>
<path d="M17.1313 11.7349H23.5322V12.8017H17.1313V11.7349Z" fill="#4B7597"/>
<path d="M5.39697 19.7358H12.3312V20.8027H5.39697V19.7358Z" fill="#4B7597"/>
</g>
<defs>
<clipPath id="clip0">
<rect width="32" height="32" fill="white"/>
</clipPath>
</defs>
</svg>
