<svg width="20" height="18" viewBox="0 0 20 18" fill="none" xmlns="http://www.w3.org/2000/svg">
<path d="M18.5451 1.71429L19.044 1.68122C19.0307 1.48065 18.8986 1.30754 18.7086 1.24179C18.5187 1.17605 18.3078 1.23045 18.1734 1.37989L18.5451 1.71429ZM17.8225 5.33744C17.8225 5.0613 17.5987 4.83744 17.3225 4.83744C17.0464 4.83744 16.8225 5.0613 16.8225 5.33744H17.8225ZM10.0001 6.42858V6.92858H10.5001V6.42858H10.0001ZM2.65131 1.71429L3.11956 1.53897C3.0498 1.35263 2.87619 1.2254 2.67749 1.21498C2.47879 1.20456 2.29283 1.31295 2.20396 1.49096L2.65131 1.71429ZM7.42871 12.8572L7.78254 13.2104C7.9049 13.0879 7.95513 12.9107 7.91532 12.7422C7.8755 12.5737 7.75131 12.4377 7.58704 12.3829L7.42871 12.8572ZM1.42871 15.1837V14.6837C1.20844 14.6837 1.01412 14.8278 0.950217 15.0386C0.886311 15.2494 0.967878 15.4772 1.15106 15.5995L1.42871 15.1837ZM16.3871 2.90619L16.0163 3.24153L16.1964 3.44078L16.462 3.40055L16.3871 2.90619ZM18.0462 1.74737C18.1097 2.70542 18.0523 3.30166 17.8903 3.75821C17.7321 4.20432 17.4565 4.56691 16.9766 5.02675L17.6684 5.74878C18.1989 5.24052 18.5997 4.74956 18.8328 4.09254C19.0621 3.44598 19.1109 2.68952 19.044 1.68122L18.0462 1.74737ZM17.8225 6.22959V5.38776H16.8225V6.22959H17.8225ZM17.8225 5.38776V5.33744H16.8225V5.38776H17.8225ZM9.50014 5.57144V6.42858H10.5001V5.57144H9.50014ZM13.705 1.21429C11.3499 1.21429 9.50014 3.26485 9.50014 5.57144H10.5001C10.5001 3.76484 11.9531 2.21429 13.705 2.21429V1.21429ZM16.8225 6.22959C16.8225 11.5848 12.327 16.2143 7.00014 16.2143V17.2143C12.8988 17.2143 17.8225 12.1174 17.8225 6.22959H16.8225ZM2.18306 1.88962C2.84611 3.66049 5.33531 6.92858 10.0001 6.92858V5.92858C5.86225 5.92858 3.67911 3.03341 3.11956 1.53897L2.18306 1.88962ZM2.20396 1.49096C0.93426 4.03429 0.716486 6.51553 1.59858 8.62646C2.48069 10.7374 4.42186 12.3804 7.27038 13.3314L7.58704 12.3829C4.93386 11.4971 3.26373 10.0177 2.52126 8.2409C1.77879 6.46408 1.92316 4.29226 3.09866 1.93763L2.20396 1.49096ZM7.07488 12.5039C6.33102 13.2489 4.20132 14.6837 1.42871 14.6837V15.6837C4.52458 15.6837 6.89629 14.0981 7.78254 13.2104L7.07488 12.5039ZM16.758 2.57085C16.0054 1.73849 14.916 1.21429 13.705 1.21429V2.21429C14.6214 2.21429 15.4451 2.6098 16.0163 3.24153L16.758 2.57085ZM16.462 3.40055C17.3666 3.26355 18.2519 2.78781 18.9168 2.0487L18.1734 1.37989C17.6573 1.95361 16.979 2.31085 16.3123 2.41183L16.462 3.40055ZM1.15106 15.5995C3.09322 16.8963 4.96254 17.2143 7.00014 17.2143V16.2143C5.08654 16.2143 3.43201 15.9201 1.70636 14.7679L1.15106 15.5995Z" fill="#FAFAFA"/>
</svg>
