<svg width="186" height="30" viewBox="0 0 186 30" fill="none" xmlns="http://www.w3.org/2000/svg">
<line x1="43" y1="14.4264" x2="186" y2="14.4264" stroke="#D1B296"/>
<rect x="14.1421" y="1.6335" width="19" height="19" transform="rotate(45 14.1421 1.6335)" stroke="#D1B296"/>
<path d="M11.1655 14.2233L11.6577 8.55139H16.603V9.88733H12.8218L12.5562 12.9889C13.0249 12.6608 13.5301 12.4967 14.0718 12.4967C14.9572 12.4967 15.6525 12.8405 16.1577 13.528C16.6629 14.2155 16.9155 15.1399 16.9155 16.3014C16.9155 17.4785 16.6395 18.403 16.0874 19.0748C15.5405 19.7467 14.7879 20.0826 13.8296 20.0826C12.9754 20.0826 12.2801 19.804 11.7437 19.2467C11.2072 18.6894 10.8999 17.9186 10.8218 16.9342H12.1187C12.1968 17.5852 12.3817 18.0774 12.6733 18.4108C12.9702 18.7389 13.3556 18.903 13.8296 18.903C14.366 18.903 14.7853 18.6712 15.0874 18.2076C15.3895 17.7389 15.5405 17.1087 15.5405 16.317C15.5405 15.5722 15.3765 14.9655 15.0483 14.4967C14.7254 14.028 14.2879 13.7936 13.7358 13.7936C13.2775 13.7936 12.9103 13.9134 12.6343 14.153L12.2671 14.5201L11.1655 14.2233Z" fill="#D1B296"/>
</svg>
