<svg width="50" height="50" viewBox="0 0 50 50" fill="none" xmlns="http://www.w3.org/2000/svg">
<path d="M13.467 4.5869L13.5212 4.59041C14.5869 4.67906 15.5125 5.21061 16.3575 6.03918C17.9632 7.61317 21.4112 12.2063 21.6716 13.4563C21.9597 14.8507 21.6516 15.7564 20.7333 17.3586L20.5107 17.7534C20.0893 18.5259 20.0249 18.8448 20.1554 19.2101C22.1604 24.135 25.5819 27.5685 30.4329 29.557C30.8923 29.724 31.2392 29.6283 32.21 29.0693L32.7167 28.7817C34.0816 28.0303 34.9467 27.7928 36.2223 28.0595C37.4634 28.3205 42.0424 31.7833 43.6083 33.3928C44.4328 34.24 44.9635 35.1707 45.056 36.3108C45.1534 39.0817 41.7845 42.9833 39.7294 44.1565C37.3923 45.8344 34.4264 45.8066 31.101 44.2532C22.4048 40.6213 9.10268 27.356 5.55776 18.6389L5.34555 18.1513C3.9995 14.9223 4.02867 12.1328 5.57118 10.0297C6.97867 7.69031 10.7735 4.46187 13.467 4.5869ZM13.2973 7.57033L13.1233 7.58155C11.7408 7.76588 8.96847 10.1614 8.04522 11.685L7.88572 11.9232C7.09036 13.2238 7.18254 15.0099 8.28988 17.4555L8.5015 17.9527C12.0727 25.9968 24.4375 38.2345 32.3 41.5195L32.733 41.7128C35.0078 42.6805 36.7298 42.6375 38.124 41.6453L38.2271 41.5788C38.6585 41.278 39.6533 40.3708 40.4196 39.4833C41.4959 38.2368 42.1055 37.0948 42.0858 36.4868C42.0643 36.2267 41.8644 35.8762 41.4792 35.4804C40.3152 34.2839 36.0817 31.0823 35.6138 30.984C35.1714 30.8915 34.8082 31.0158 33.8152 31.5891L33.3156 31.8707C31.8526 32.6626 30.8212 32.8754 29.364 32.3446C23.7169 30.0313 19.7079 26.0082 17.3786 20.2834C16.8268 18.7528 17.1238 17.6698 18.0833 15.9915L18.3119 15.5878C18.7478 14.7979 18.84 14.4628 18.7579 14.0653C18.6595 13.5931 15.4717 9.34661 14.278 8.17647C13.8827 7.78884 13.5354 7.58939 13.2754 7.56776L13.2973 7.57033Z" fill="white"/>
</svg>
