<svg width="32" height="40" viewBox="0 0 32 40" fill="none" xmlns="http://www.w3.org/2000/svg">
<path d="M21.9713 0C28.0963 0 32 2.87005 32 8.51531V36.6619C32 37.5472 31.657 38.3964 31.0463 39.0224C30.4357 39.6485 29.6075 40 28.7216 40C28.1931 39.9914 27.6735 39.8582 27.1726 39.5942L15.948 33.327L4.76883 39.6074C3.42241 40.3248 1.79089 39.9938 0.768616 38.7951L0.572549 38.5438L0.385251 38.2348C0.140831 37.7564 0.0089653 37.226 0 36.6619V8.86868C0 2.99858 3.81829 0 10.0287 0H21.9713ZM21.9713 2.89549H10.0287C5.2385 2.89549 2.8241 4.79157 2.8241 8.86868L2.8239 36.6378C2.82534 36.7261 2.84692 36.8129 2.82345 36.7794L2.89838 36.9038C3.02746 37.0842 3.2697 37.143 3.43923 37.053L14.6137 30.7765C15.4465 30.3152 16.4501 30.3152 17.287 30.7788L28.4925 37.0347C28.5773 37.0793 28.6711 37.1033 28.744 37.1047C28.8585 37.1047 28.9684 37.058 29.0494 36.975C29.1304 36.8919 29.1759 36.7793 29.1759 36.6619V8.51531C29.1759 4.71576 26.7001 2.89549 21.9713 2.89549ZM22.8158 12.6333C23.5956 12.6333 24.2278 13.2814 24.2278 14.081C24.2278 14.8139 23.6966 15.4197 23.0074 15.5155L22.8158 15.5288H9.08085C8.30099 15.5288 7.6688 14.8806 7.6688 14.081C7.6688 13.3481 8.20002 12.7423 8.88924 12.6465L9.08085 12.6333H22.8158Z" fill="#D1B296"/>
</svg>
