<svg width="186" height="29" viewBox="0 0 186 29" fill="none" xmlns="http://www.w3.org/2000/svg">
<line x1="43" y1="13.5736" x2="186" y2="13.5736" stroke="#D1B296"/>
<rect x="14.1421" y="0.780715" width="19" height="19" transform="rotate(45 14.1421 0.780715)" stroke="#D1B296"/>
<path d="M16.9624 19.0736H10.603V18.0345L13.8452 13.7377C14.3348 13.0762 14.6733 12.5345 14.8608 12.1127C15.0535 11.6856 15.1499 11.2351 15.1499 10.7611C15.1499 10.1569 15.0093 9.66736 14.728 9.29236C14.4468 8.91736 14.077 8.72986 13.6187 8.72986C13.0405 8.72986 12.5926 8.93038 12.2749 9.33142C11.9624 9.72725 11.8062 10.3002 11.8062 11.0502H10.4233C10.4233 10.0033 10.7098 9.15694 11.2827 8.51111C11.8556 7.86528 12.6343 7.54236 13.6187 7.54236C14.5249 7.54236 15.2384 7.821 15.7593 8.3783C16.2801 8.93038 16.5405 9.66736 16.5405 10.5892C16.5405 11.7142 15.9546 13.045 14.7827 14.5814L12.2515 17.8939H16.9624V19.0736Z" fill="#D1B296"/>
</svg>
