<svg width="190" height="60" viewBox="0 0 190 60" fill="none" xmlns="http://www.w3.org/2000/svg">
<path d="M73.1265 24.6201H76.2149V35.4384L82.8494 24.6201H86.1436V40.8702H83.0552V30.2259L76.4208 40.8702H73.1265V24.6201ZM89.5257 40.8702V24.6201H92.8429V31.0202H99.2943V24.6201H102.612V40.8702H99.2943V33.7665H92.8429V40.8702H89.5257ZM106.047 40.8702V24.6201H109.364V31.0202H115.816V24.6201H119.133V40.8702H115.816V33.7665H109.364V40.8702H106.047ZM121.882 32.8435C121.882 31.1867 122.134 29.7947 122.633 28.6675C123.003 27.839 123.514 27.0939 124.158 26.4357C124.803 25.7776 125.508 25.2895 126.274 24.968C127.296 24.5406 128.474 24.325 129.809 24.325C132.226 24.325 134.156 25.0702 135.608 26.5568C137.057 28.0471 137.782 30.1162 137.782 32.7678C137.782 35.3967 137.061 37.4545 135.624 38.9373C134.186 40.4239 132.261 41.1652 129.855 41.1652C127.418 41.1652 125.477 40.4277 124.04 38.9486C122.603 37.4734 121.882 35.4384 121.882 32.8435ZM125.291 32.7338C125.291 34.5759 125.721 35.9717 126.579 36.9249C127.437 37.8744 128.528 38.351 129.847 38.351C131.17 38.351 132.253 37.8781 133.103 36.9363C133.95 35.9906 134.373 34.5759 134.373 32.6884C134.373 30.8236 133.961 29.4315 133.134 28.5162C132.31 27.597 131.216 27.1393 129.847 27.1393C128.482 27.1393 127.38 27.6045 126.545 28.5313C125.71 29.4618 125.291 30.8614 125.291 32.7338ZM140.363 24.6201H146.913C148.214 24.6201 149.178 24.673 149.815 24.7789C150.456 24.8886 151.024 25.1118 151.527 25.4485C152.03 25.7889 152.45 26.239 152.785 26.8026C153.121 27.3662 153.289 28.0017 153.289 28.7015C153.289 29.458 153.083 30.1578 152.671 30.7895C152.259 31.425 151.699 31.8978 150.993 32.2155C151.988 32.5068 152.751 32.9986 153.289 33.6946C153.822 34.3906 154.089 35.2076 154.089 36.1495C154.089 36.8909 153.918 37.6096 153.571 38.3094C153.224 39.0092 152.751 39.569 152.149 39.9888C151.55 40.4049 150.81 40.6622 149.929 40.7606C149.38 40.8173 148.05 40.8551 145.941 40.8702H140.363V24.6201ZM143.68 27.3208V31.0656H145.846C147.131 31.0656 147.931 31.0467 148.244 31.0089C148.809 30.9446 149.255 30.7517 149.579 30.4302C149.903 30.1087 150.063 29.6888 150.063 29.1668C150.063 28.6637 149.922 28.259 149.644 27.9449C149.365 27.631 148.95 27.4419 148.401 27.3776C148.073 27.3398 147.131 27.3208 145.579 27.3208H143.68ZM143.68 33.7665V38.1241H146.746C147.935 38.1241 148.694 38.09 149.014 38.0257C149.506 37.9349 149.907 37.7193 150.215 37.3751C150.524 37.0271 150.681 36.5694 150.681 35.9906C150.681 35.4989 150.562 35.0866 150.322 34.7461C150.086 34.4057 149.739 34.1561 149.289 34.001C148.839 33.8459 147.859 33.7665 146.353 33.7665H143.68ZM170.5 40.8702H166.927L165.513 37.1708H158.943L157.582 40.8702H154.074L160.434 24.6201H163.938L170.5 40.8702ZM164.438 34.4246L162.161 28.4102L159.95 34.4246H164.438Z" fill="#FAFAFA"/>
<path d="M76.425 17.7166H74.399V20.8534H73.105V16.6942H76.425V17.7166ZM78.9575 16.6942H81.1124C81.5818 16.6942 81.9331 16.8046 82.1673 17.0262C82.4006 17.248 82.5177 17.5636 82.5177 17.9732C82.5177 18.3934 82.3899 18.7225 82.1352 18.9587C81.8804 19.1959 81.491 19.3141 80.9679 19.3141H80.2575V20.8534H78.9575V16.6942ZM80.2575 18.4718H80.5766C80.8284 18.4718 81.005 18.4282 81.1065 18.342C81.208 18.2559 81.2588 18.1455 81.2588 18.0109C81.2588 17.8802 81.2148 17.7698 81.1261 17.6789C81.0382 17.5878 80.8723 17.5423 80.6284 17.5423H80.2575V18.4718ZM84.7525 16.6942H86.1578L86.7404 18.4078L87.3113 16.6942H88.6289L87.2548 19.9066C87.1425 20.1651 87.044 20.3587 86.96 20.4855C86.8761 20.6134 86.7522 20.7179 86.5872 20.8002C86.4223 20.8825 86.1959 20.9231 85.908 20.9231C85.7557 20.9231 85.4933 20.9019 85.1214 20.8583V19.9995C85.341 20.0228 85.5011 20.0344 85.6016 20.0344C85.9012 20.0344 86.0837 19.924 86.1481 19.7023L84.7525 16.6942ZM95.0485 20.8534H93.7544V17.7166H92.3315V20.8534H91.0375V16.6942H95.0485V20.8534ZM101.879 20.8534H100.585V17.7166H99.162V20.8534H97.8679V16.6942H101.879V20.8534ZM107.272 20.168H105.804L105.593 20.8534H104.271L105.849 16.6942H107.267L108.838 20.8534H107.482L107.272 20.168ZM106.998 19.2676L106.54 17.7728L106.08 19.2676H106.998ZM116.965 20.8534H115.506L114.996 19.7827C114.878 19.528 114.786 19.3693 114.72 19.3054C114.655 19.2414 114.563 19.2095 114.447 19.2095V20.8534H113.153V16.6942H114.447V18.2917C114.559 18.2859 114.647 18.2462 114.709 18.1726C114.773 18.099 114.87 17.887 115.004 17.5375C115.102 17.279 115.199 17.0931 115.299 16.9808C115.397 16.8685 115.558 16.7881 115.781 16.7387C116.004 16.6893 116.354 16.6651 116.83 16.6651V17.5423H116.765C116.543 17.5423 116.379 17.584 116.273 17.6672C116.166 17.7505 116.079 17.885 116.01 18.0719C115.941 18.2588 115.868 18.3972 115.789 18.4892C115.71 18.5812 115.601 18.6547 115.465 18.709C115.651 18.7699 115.814 18.8745 115.953 19.0227C116.092 19.1717 116.24 19.4032 116.396 19.7168L116.965 20.8534ZM119.216 18.7768C119.216 18.098 119.406 17.5694 119.788 17.1918C120.17 16.8133 120.7 16.6245 121.382 16.6245C122.079 16.6245 122.617 16.8103 122.995 17.1812C123.373 17.553 123.561 18.0738 123.561 18.7428C123.561 19.2289 123.479 19.6268 123.314 19.9375C123.149 20.2483 122.91 20.4904 122.599 20.6637C122.286 20.837 121.898 20.9231 121.432 20.9231C120.96 20.9231 120.569 20.8486 120.258 20.6995C119.949 20.5495 119.697 20.3132 119.505 19.9899C119.313 19.6675 119.216 19.2628 119.216 18.7768ZM120.51 18.7797C120.51 19.1988 120.589 19.5009 120.746 19.6839C120.904 19.8669 121.119 19.9589 121.39 19.9589C121.669 19.9589 121.885 19.8688 122.037 19.6897C122.191 19.5096 122.267 19.1882 122.267 18.7225C122.267 18.3314 122.187 18.0458 122.028 17.8657C121.868 17.6846 121.652 17.5946 121.379 17.5946C121.117 17.5946 120.906 17.6866 120.748 17.8696C120.589 18.0525 120.51 18.3565 120.51 18.7797ZM126.199 16.6942H127.908L128.558 19.225L129.211 16.6942H130.912V20.8534H129.853V17.6827L129.035 20.8534H128.074L127.259 17.6827V20.8534H126.199V16.6942ZM137.707 20.8534H136.413V17.7166H134.99V20.8534H133.696V16.6942H137.707V20.8534ZM143.1 20.168H141.632L141.421 20.8534H140.099L141.677 16.6942H143.095L144.666 20.8534H143.31L143.1 20.168ZM142.825 19.2676L142.368 17.7728L141.908 19.2676H142.825ZM147.034 16.6942H148.328V18.1464H149.745V16.6942H151.045V20.8534H149.745V19.1688H148.328V20.8534H147.034V16.6942ZM157.869 16.6942V20.8534H156.651V18.5695L155.093 20.8534H153.864V16.6942H155.088V18.9956L156.658 16.6942H157.869ZM164.7 16.6942V20.8534H163.482V18.5695L161.923 20.8534H160.695V16.6942H161.918V18.9956L163.489 16.6942H164.7ZM163.751 15.6718C163.711 15.91 163.595 16.1017 163.404 16.2479C163.212 16.3941 162.984 16.4677 162.72 16.4677C162.456 16.4677 162.229 16.3941 162.035 16.2469C161.843 16.0998 161.728 15.9081 161.69 15.6718H162.182C162.263 15.9081 162.438 16.0262 162.708 16.0262C162.997 16.0262 163.18 15.9081 163.259 15.6718H163.751Z" fill="#D1B296"/>
<path fill-rule="evenodd" clip-rule="evenodd" d="M43.7864 4L68.5074 17.9366L63.2166 21.466L32.2926 19.4751L50.2632 29.4298L44.8811 32.9592L20.6162 18.7511L25.6334 15.4932L55.8277 17.2126L38.7693 7.25789L43.7864 4Z" fill="#D1B296"/>
<path fill-rule="evenodd" clip-rule="evenodd" d="M68.5508 23.5714L68.8702 40.9242L44.7878 55.6752L20.5229 41.4672V35.5848L44.7878 49.7024L63.9443 37.8473L63.6706 32.8699L44.879 44.4536L26.8172 34.0464L26.8629 28.2998L44.7879 38.5713L68.5508 23.5714Z" fill="#D1B296"/>
<path fill-rule="evenodd" clip-rule="evenodd" d="M20.5 25.0338V30.7352L24.6506 33.2238L24.6962 27.3415L20.5 25.0338Z" fill="#D1B296"/>
<path fill-rule="evenodd" clip-rule="evenodd" d="M44.7882 38.5713L44.8793 44.4536L63.6709 32.8699L63.9445 37.8473L44.7881 49.7024V55.6752L68.8705 40.9242L68.5511 23.5714L44.7882 38.5713Z" fill="#FAFAFA"/>
</svg>
